<svg width="481" height="480" viewBox="0 0 481 480" fill="none" xmlns="http://www.w3.org/2000/svg">
<path d="M457.36 298.24C433.773 332.4 405.917 355.783 373.79 368.39C341.663 380.997 313.807 400.517 290.22 426.95C266.633 453.383 235.117 470.26 195.67 477.58C156.223 484.9 132.637 465.177 124.91 418.41C117.183 371.643 89.7333 341.957 42.56 329.35C-4.61335 316.743 -12.34 293.157 19.38 258.59C51.1 224.023 71.4333 193.523 80.38 167.09C89.3266 140.657 101.73 109.14 117.59 72.54C133.45 35.94 161.103 12.9633 200.55 3.60999C239.997 -5.74334 273.953 4.21999 302.42 33.5C330.887 62.78 363.623 85.7567 400.63 102.43C437.637 119.103 462.24 147.367 474.44 187.22C486.64 227.073 480.947 264.08 457.36 298.24Z" fill="#FFD3B4"/>
</svg>
